<svg width="80" height="80" viewBox="0 0 80 80" fill="none" xmlns="http://www.w3.org/2000/svg">
<path d="M76 0H4C1.79086 0 0 1.79086 0 4V76C0 78.2091 1.79086 80 4 80H76C78.2091 80 80 78.2091 80 76V4C80 1.79086 78.2091 0 76 0Z" fill="#8CC84B"/>
<path d="M37.6393 15.5334C38.8791 14.8238 40.4939 14.8206 41.7326 15.5334C47.9644 19.0547 54.1981 22.5705 60.4289 26.0939C61.6008 26.754 62.3847 28.0583 62.3728 29.4086V50.5941C62.3815 52.0003 61.5201 53.3357 60.2837 53.9809C54.0724 57.4828 47.8643 60.9889 41.654 64.4908C40.3886 65.2143 38.7414 65.1586 37.5155 64.3758C35.6534 63.2963 33.788 62.2221 31.9257 61.1437C31.5451 60.9168 31.1161 60.7363 30.8474 60.3673C31.085 60.0471 31.5097 60.0072 31.8548 59.8674C32.6321 59.6202 33.346 59.2235 34.0601 58.8385C34.2407 58.7149 34.4611 58.7623 34.6342 58.8729C36.2266 59.7859 37.8049 60.7254 39.4026 61.6297C39.7434 61.8264 40.0886 61.5652 40.3799 61.4028C46.4751 57.9579 52.5778 54.526 58.672 51.08C58.8978 50.9714 59.0226 50.7317 59.0042 50.4844C59.0085 43.4958 59.0053 36.5059 59.0064 29.5173C59.0322 29.2366 58.8698 28.9786 58.616 28.8637C52.4263 25.3779 46.2397 21.8867 40.051 18.3999C39.9438 18.3262 39.8167 18.2867 39.6866 18.2865C39.5565 18.2863 39.4294 18.3255 39.3219 18.3989C33.1332 21.8867 26.9477 25.3811 20.759 28.8667C20.5061 28.9818 20.3364 29.2355 20.3665 29.5173C20.3676 36.5059 20.3665 43.4958 20.3665 50.4854C20.3558 50.6061 20.3823 50.7272 20.4425 50.8324C20.5026 50.9375 20.5936 51.0217 20.7031 51.0736C22.3546 52.0101 24.0082 52.9401 25.6608 53.8734C26.5917 54.3745 27.7348 54.6722 28.7605 54.2883C29.6657 53.9636 30.3002 53.04 30.2829 52.0789C30.2915 45.131 30.2786 38.1821 30.2893 31.2353C30.2667 30.9269 30.5593 30.6721 30.8592 30.7011C31.6527 30.6958 32.4473 30.6904 33.2408 30.7033C33.572 30.6958 33.7999 31.0279 33.759 31.3386C33.7558 38.3305 33.7675 45.3225 33.7536 52.3143C33.7558 54.1777 32.9902 56.2053 31.2666 57.117C29.1432 58.217 26.5187 57.9837 24.421 56.929C22.6049 56.0226 20.8719 54.9529 19.0881 53.9818C17.8485 53.3402 16.9914 51.9995 17.0002 50.5942V29.4086C16.9872 28.0303 17.8022 26.7024 19.0106 26.0519C25.2209 22.5472 31.4301 19.0398 37.6393 15.5334Z" fill="white"/>
<path d="M43.057 30.2089C45.7656 30.0346 48.6652 30.1057 51.1026 31.44C52.9896 32.4625 54.0358 34.6085 54.0691 36.705C54.0164 36.9878 53.7208 37.1438 53.4509 37.1244C52.665 37.1234 51.879 37.1351 51.0931 37.1191C50.7598 37.1319 50.566 36.8245 50.5242 36.5298C50.2984 35.5267 49.7513 34.5332 48.8072 34.0494C47.3578 33.3237 45.6773 33.3602 44.0968 33.3753C42.9431 33.4366 41.7024 33.5365 40.725 34.215C39.9745 34.7289 39.7466 35.7664 40.0144 36.6019C40.2669 37.2019 40.9595 37.3955 41.5261 37.5739C44.7903 38.4276 48.2492 38.3426 51.4511 39.4661C52.7767 39.9242 54.0734 40.8145 54.5272 42.2025C55.1207 44.0627 54.8605 46.2862 53.5371 47.7795C52.4638 49.0084 50.9006 49.6773 49.3416 50.0406C47.2675 50.503 45.1151 50.5148 43.0088 50.3095C41.0282 50.0837 38.9672 49.5633 37.4382 48.2139C36.1308 47.0786 35.4922 45.3098 35.5556 43.6025C35.5707 43.3142 35.8578 43.1132 36.134 43.1369C36.9253 43.1305 37.7167 43.1283 38.5081 43.1379C38.8242 43.1153 39.0585 43.3885 39.0747 43.6864C39.2207 44.6422 39.5799 45.6453 40.4133 46.2119C42.0217 47.2496 44.0399 47.1785 45.8815 47.2075C47.4073 47.1399 49.12 47.1194 50.3651 46.1109C51.0221 45.5357 51.2167 44.5734 51.0392 43.7455C50.8468 43.0466 50.1157 42.7209 49.4878 42.5079C46.2655 41.4886 42.7679 41.8584 39.5767 40.7057C38.2812 40.2479 37.0284 39.3823 36.5307 38.0513C35.8362 36.1676 36.1544 33.8376 37.6166 32.3947C39.0423 30.9594 41.1003 30.4066 43.057 30.2088V30.2089Z" fill="white"/>
</svg>
